<svg width="20" height="29" viewBox="0 0 20 29" fill="none" xmlns="http://www.w3.org/2000/svg">
<path d="M17.8916 18.0203C17.8916 18.0203 17.8217 17.7982 17.6848 17.4027C16.62 14.3848 11.442 1.31814 1.20468 0.149902C5.57037 0.737064 8.93514 4.47604 8.93514 8.99992C8.93514 13.9345 4.93453 17.9351 -6.10352e-05 17.9351V28.9969C2.39422 28.9969 4.69115 28.5801 6.82075 27.8073C8.68872 27.1289 10.7179 27.0133 12.6285 27.5579L17.3805 28.9086C18.9169 29.3437 20.3376 27.926 19.9026 26.3866L18.205 20.3963C18.0042 19.6936 17.9494 18.9573 18.0377 18.2424L17.8916 18.0203Z" fill="url(#paint0_linear_2_182)"/>
<defs>
<linearGradient id="paint0_linear_2_182" x1="2.42382" y1="0.149912" x2="20.2335" y2="1.18148" gradientUnits="userSpaceOnUse">
<stop stop-color="#DF5950"/>
<stop offset="1" stop-color="#451046"/>
</linearGradient>
</defs>
</svg>
